<svg width="900" height="900" viewBox="0 0 900 900" fill="none" xmlns="http://www.w3.org/2000/svg">
<g clip-path="url(#clip0_6388_80)">
<rect x="657.094" y="280" width="526.604" height="271.118" transform="rotate(12.428 657.094 280)" fill="#29A914"/>
<rect x="848.547" y="583" width="128" height="212.317" transform="rotate(12.428 848.547 583)" fill="white"/>
<rect x="848.547" y="583" width="128" height="212.317" transform="rotate(12.428 848.547 583)" fill="#29A914"/>
<rect x="240" y="553" width="353" height="144" fill="white"/>
<rect x="240" y="553" width="353" height="144" fill="#E2FF05"/>
<rect x="496" y="441" width="128" height="128" fill="white"/>
<rect x="496" y="441" width="128" height="128" fill="#5AC40F"/>
<rect x="368" y="441" width="128" height="128" fill="white"/>
<rect x="368" y="441" width="128" height="128" fill="#5AC40F"/>
<rect x="240" y="441" width="128" height="128" fill="white"/>
<rect x="240" y="441" width="128" height="128" fill="#5AC40F"/>
<rect x="240" y="313" width="128" height="128" fill="white"/>
<rect x="240" y="313" width="128" height="128" fill="#5AC40F"/>
<rect x="368" y="185" width="128" height="128" fill="white"/>
<rect x="368" y="185" width="128" height="128" fill="#5AC40F"/>
<rect x="496" y="185" width="128" height="128" fill="white"/>
<rect x="496" y="185" width="128" height="128" fill="#5AC40F"/>
<rect x="368" y="185" width="256" height="128" fill="white"/>
<rect x="368" y="185" width="256" height="128" fill="#5AC40F"/>
<rect x="240" y="313" width="128" height="166" fill="white"/>
<rect x="240" y="313" width="128" height="166" fill="#5AC40F"/>
<rect x="240" y="441" width="384" height="128" fill="white"/>
<rect x="240" y="441" width="384" height="128" fill="#5AC40F"/>
<rect x="368" y="313" width="128" height="128" fill="white"/>
<rect x="368" y="313" width="128" height="128" fill="white"/>
<rect x="368" y="313" width="128" height="128" fill="black"/>
<rect x="368" y="313" width="149" height="128" fill="white"/>
<rect x="368" y="313" width="149" height="128" fill="white"/>
<rect x="368" y="313" width="149" height="128" fill="black"/>
<rect x="496" y="313" width="128" height="128" fill="white"/>
<rect x="496" y="313" width="128" height="128" fill="white"/>
<rect x="593" y="520" width="128" height="128" fill="white"/>
<rect x="593" y="520" width="128" height="128" fill="#5AD61F"/>
<rect x="593" y="633" width="128" height="128" fill="white"/>
<rect x="593" y="633" width="128" height="128" fill="#5AD61F"/>
<rect x="593" y="520" width="256" height="380" fill="white"/>
<rect x="593" y="520" width="256" height="380" fill="#5AD61F"/>
<rect x="721" y="761" width="128" height="128" fill="white"/>
<rect x="721" y="761" width="128" height="128" fill="white"/>
<rect x="721" y="761" width="128" height="128" fill="white"/>
<rect x="721" y="761" width="128" height="128" fill="white"/>
<rect x="721" y="761" width="128" height="128" fill="white"/>
<rect x="721" y="761" width="128" height="128" fill="white"/>
<rect x="721" y="761" width="128" height="128" fill="#5AD61F"/>
<rect x="721" y="633" width="128" height="128" fill="white"/>
<rect x="721" y="633" width="128" height="128" fill="white"/>
<rect x="721" y="633" width="128" height="128" fill="white"/>
<rect x="721" y="633" width="128" height="128" fill="white"/>
<rect x="721" y="633" width="128" height="128" fill="white"/>
<rect x="721" y="633" width="128" height="128" fill="white"/>
<rect x="721" y="633" width="128" height="128" fill="#5AD61F"/>
<rect x="593" y="761" width="128" height="128" fill="white"/>
<rect x="593" y="761" width="128" height="128" fill="white"/>
<rect x="593" y="761" width="128" height="128" fill="white"/>
<rect x="593" y="761" width="128" height="128" fill="white"/>
<rect x="593" y="761" width="128" height="128" fill="white"/>
<rect x="593" y="761" width="128" height="128" fill="white"/>
<rect x="593" y="761" width="128" height="128" fill="#5AD61F"/>
<rect x="593" y="889" width="128" height="128" fill="white"/>
<rect x="593" y="889" width="128" height="128" fill="white"/>
<rect x="593" y="889" width="128" height="128" fill="white"/>
<rect x="593" y="889" width="128" height="128" fill="white"/>
<rect x="593" y="889" width="128" height="128" fill="white"/>
<rect x="593" y="889" width="128" height="128" fill="white"/>
<rect x="593" y="889" width="128" height="128" fill="#5AD61F"/>
<rect x="721" y="889" width="128" height="128" fill="white"/>
<rect x="721" y="889" width="128" height="128" fill="white"/>
<rect x="721" y="889" width="128" height="128" fill="white"/>
<rect x="721" y="889" width="128" height="128" fill="white"/>
<rect x="721" y="889" width="128" height="128" fill="white"/>
<rect x="721" y="889" width="128" height="128" fill="white"/>
<rect x="721" y="889" width="128" height="128" fill="#5AD61F"/>
<rect x="721" y="520" width="128" height="128" fill="white"/>
<rect x="721" y="520" width="128" height="128" fill="#5AD61F"/>
</g>
<defs>
<clipPath id="clip0_6388_80">
<rect width="900" height="900" fill="white"/>
</clipPath>
</defs>
</svg>
